{"title":"The Man Who WasnÃ‚Â´t There[Color].SWESUB.DVDRip.XViD","uid":5502255,"size":741846586,"categoryP":"video","categoryS":"movies","magnet":"?xt=urn:btih:0376c89613c6da2f2f393819bf920a9ff47d999b&amp;dn=The+Man+Who+Wasn%C3%82%C2%B4t+There%5BColor%5D.SWESUB.DVDRip.XViD&amp;tr=udp%3A%2F%2Ftracker.openbittorrent.com%3A80&amp;tr=udp%3A%2F%2Fopen.demonii.com%3A1337&amp;tr=udp%3A%2F%2Ftracker.coppersurfer.tk%3A6969&amp;tr=udp%3A%2F%2Fexodus.desync.com%3A6969","seeders":1,"leechers":0,"uploader":"Zen_Bud","files":-1,"time":1271609201,"description":"General\nComplete name                    : The Man Who Wasn't There[Color].avi\nFormat                           : AVI\nFormat/Info                      : Audio Video Interleave\nFile size                        : 707 MiB\nDuration                         : 1h 51mn\nOverall bit rate                 : 891 Kbps\n\nVideo\nID                               : 0\nFormat                           : MPEG-4 Visual\nCodec ID/Hint                    : XviD\nDuration                         : 1h 51mn\nBit rate                         : 750 Kbps\nWidth                            : 720 pixels\nHeight                           : 550 pixels\nResolution                       : 8 bits\nColorimetry                      : 4:2:0\nScan type                        : Progressive\nBits/(Pixel*Frame)               : 0.076\nStream size                      : 595 MiB (84%)\nWriting library                  : XviD 1.1.2 (UTC 2006-11-01)\n\nAudio\nID                               : 1\nFormat                           : MPEG Audio\nFormat version                   : Version 1\nFormat profile                   : Layer 3\nMode                             : Joint stereo\nCodec ID                         : 55\nCodec ID/Hint                    : MP3\nDuration                         : 1h 51mn\nBit rate mode                    : Constant\nBit rate                         : 128 Kbps\nChannel(s)                       : 2 channels\nSampling rate                    : 48.0 KHz\nStream size                      : 102 MiB (14%)\nWriting library                  : LAME3.98\n\n","torrent":{"xt":"urn:btih:0376c89613c6da2f2f393819bf920a9ff47d999b","amp;dn":"The+Man+Who+Wasn%C3%82%C2%B4t+There%5BColor%5D.SWESUB.DVDRip.XViD","amp;tr":["udp%3A%2F%2Ftracker.openbittorrent.com%3A80","udp%3A%2F%2Fopen.demonii.com%3A1337","udp%3A%2F%2Ftracker.coppersurfer.tk%3A6969","udp%3A%2F%2Fexodus.desync.com%3A6969"],"infoHash":"0376c89613c6da2f2f393819bf920a9ff47d999b","infoHashBuffer":{"type":"Buffer","data":[3,118,200,150,19,198,218,47,47,57,56,25,191,146,10,159,244,125,153,155]},"announce":[],"urlList":[]}}